<svg xmlns="http://www.w3.org/2000/svg" width="192" height="192" viewBox="0 0 192 192" aria-hidden="true" focusable="false">
  <rect width="192" height="192" fill="none"/>
  <!-- Seamless, tileable guilloché-style waves: minimalist, engraved feel -->
  <g fill="none" stroke="#1f4c3b" stroke-opacity="0.16" stroke-width="0.8" vector-effect="non-scaling-stroke" shape-rendering="geometricPrecision" pointer-events="none" stroke-linecap="round">
    <!--
      Cosine-like waves with subtle per-line variation in amplitude, frequency,
      and phase. All paths are periodic over the tile width so both position and
      slope match at x=0 and x=192 for perfect horizontal tiling. Lines are
      evenly spaced to keep vertical tiling seamless.
    -->
    <!-- y=6, 1 period, crest start, a=5.5 -->
    <path d="M0,6 Q48,11.5 96,6 Q144,0.5 192,6"/>
    <!-- y=18, 1 period, trough start, a=6.2 -->
    <path d="M0,18 Q48,11.8 96,18 Q144,24.2 192,18"/>
    <!-- y=30, 2 periods, crest start, a=6.8, slight modulation -->
    <path d="M0,30 Q24,36.8 48,30 Q72,24.2 96,30 Q120,37.3 144,30 Q168,23.2 192,30"/>
    <!-- y=42, 1 period, crest start, a=5.8 -->
    <path d="M0,42 Q48,47.8 96,42 Q144,36.2 192,42"/>
    <!-- y=54, 2 periods, trough start, a=6.5, slight modulation -->
    <path d="M0,54 Q24,47.5 48,54 Q72,60.9 96,54 Q120,47.1 144,54 Q168,60.5 192,54"/>
    <!-- y=66, 1 period, crest start, a=6.0 -->
    <path d="M0,66 Q48,72 96,66 Q144,60 192,66"/>
    <!-- y=78, 2 periods, crest start, a=7.0, slight modulation -->
    <path d="M0,78 Q24,85 48,78 Q72,71.05 96,78 Q120,85.35 144,78 Q168,71 192,78"/>
    <!-- y=90, 1 period, trough start, a=5.7 -->
    <path d="M0,90 Q48,84.3 96,90 Q144,95.7 192,90"/>
    <!-- y=102, 1 period, crest start, a=6.4 -->
    <path d="M0,102 Q48,108.4 96,102 Q144,95.6 192,102"/>
    <!-- y=114, 2 periods, trough start, a=6.0, slight modulation -->
    <path d="M0,114 Q24,108 48,114 Q72,120.48 96,114 Q120,106.8 144,114 Q168,120 192,114"/>
    <!-- y=126, 1 period, crest start, a=6.9 -->
    <path d="M0,126 Q48,132.9 96,126 Q144,119.1 192,126"/>
    <!-- y=138, 1 period, trough start, a=5.6 -->
    <path d="M0,138 Q48,132.4 96,138 Q144,143.6 192,138"/>
    <!-- y=150, 2 periods, crest start, a=6.3, slight modulation -->
    <path d="M0,150 Q24,156.3 48,150 Q72,144.33 96,150 Q120,156.93 144,150 Q168,143.7 192,150"/>
    <!-- y=162, 1 period, crest start, a=6.1 -->
    <path d="M0,162 Q48,168.1 96,162 Q144,155.9 192,162"/>
    <!-- y=174, 2 periods, trough start, a=6.7, slight modulation -->
    <path d="M0,174 Q24,167.3 48,174 Q72,180.04 96,174 Q120,166.31 144,174 Q168,180.7 192,174"/>
    <!-- y=186, 1 period, crest start, a=5.9 -->
    <path d="M0,186 Q48,191.9 96,186 Q144,180.1 192,186"/>
  </g>
  <!-- No scripts, no external references -->
</svg>
